if (_typeface_js && _typeface_js.loadFace) _typeface_js.loadFace({"glyphs":{"0":{"ha":522,"x_min":0,"x_max":0,"o":"m 435 292 b 217 -3 435 115 365 -3 b 0 292 68 -3 0 118 l 0 726 b 217 1021 0 900 68 1021 b 385 933 290 1021 347 992 b 435 726 418 883 435 814 z m 385 726 b 217 971 385 883 329 971 b 90 906 160 971 117 949 b 49 726 63 865 49 806 l 49 292 b 217 46 49 136 104 46 b 385 292 328 46 385 138 z m 351 292 b 217 79 351 150 307 79 b 82 292 126 79 82 150 l 82 726 b 217 939 82 868 126 939 b 351 726 307 939 351 868 z m 303 726 b 293 821 303 767 300 799 b 240 886 279 864 260 882 b 217 889 231 888 222 889 b 165 868 206 889 183 889 b 142 821 156 858 149 842 b 131 726 135 799 131 767 l 131 292 b 142 197 131 251 135 219 b 194 131 156 153 175 135 b 217 128 204 129 211 128 b 268 149 228 128 250 128 b 293 197 278 158 286 175 b 303 292 300 219 303 251 z "},"1":{"ha":382,"x_min":0,"x_max":0,"o":"m 164 1021 l 290 1021 l 290 -3 l 242 -3 l 242 982 l 200 982 l 42 751 l 0 786 z m 160 -3 l 160 782 l 101 703 l 67 731 l 208 938 l 208 -3 z "},"2":{"ha":500,"x_min":0,"x_max":0,"o":"m 49 682 l 0 682 l 0 747 b 51 943 0 832 17 897 b 217 1021 78 978 128 1021 b 371 950 279 1021 333 994 b 433 760 408 904 432 838 l 435 760 l 435 747 l 433 747 b 397 590 432 682 418 633 b 322 472 376 546 350 510 b 272 403 306 451 289 429 b 179 254 233 343 201 297 b 136 128 157 210 143 172 l 435 128 l 435 79 l 82 79 b 125 254 83 146 100 200 b 231 429 150 308 186 363 l 257 468 b 282 503 265 479 274 490 b 353 611 310 540 335 572 b 385 747 371 649 383 692 l 385 760 b 217 971 381 876 326 971 b 49 747 107 971 49 893 z m 49 46 l 435 46 l 435 -3 l 0 -3 l 0 63 b 46 279 0 146 17 215 b 163 475 75 343 114 404 b 217 551 183 504 200 529 b 279 646 243 586 264 615 b 303 753 294 676 303 708 b 289 833 303 769 300 803 b 217 889 276 864 256 889 b 163 872 201 889 181 889 b 131 747 144 854 131 818 l 131 682 l 82 682 l 82 747 b 217 939 82 876 128 939 b 351 753 301 939 351 863 b 324 625 351 699 340 660 b 257 522 307 590 285 557 b 231 486 247 510 239 499 b 203 449 222 474 213 461 b 92 261 157 378 118 321 b 49 63 64 200 49 140 z "},"3":{"ha":500,"x_min":0,"x_max":0,"o":"m 340 508 l 347 501 b 435 282 388 464 435 394 b 386 90 435 206 418 140 b 217 -3 347 31 288 -3 b 49 83 143 -3 88 26 b 0 289 17 133 0 200 l 0 354 l 49 354 l 49 289 b 104 92 49 189 71 126 b 217 46 136 57 178 46 b 385 282 321 46 385 138 b 313 467 385 376 346 435 b 251 507 294 485 274 497 b 361 618 300 531 329 558 b 385 735 376 647 385 686 b 217 971 385 879 321 971 b 90 906 160 971 117 949 b 49 728 63 865 49 806 l 49 663 l 0 663 l 0 728 b 217 1021 0 904 72 1021 b 435 735 363 1021 435 886 b 347 514 435 622 388 553 b 344 511 346 513 344 513 z m 118 524 l 118 574 l 181 574 b 257 610 199 574 232 585 b 303 735 282 635 303 674 b 301 765 303 739 303 749 b 265 867 299 799 288 838 b 217 889 253 882 238 889 b 165 869 206 889 183 889 b 142 821 156 860 149 843 b 131 728 135 799 131 768 l 131 663 l 82 663 l 82 728 b 217 939 82 868 126 939 b 351 735 301 939 351 856 b 293 575 351 663 326 610 b 181 524 258 540 215 524 z m 82 354 l 131 354 l 131 289 b 140 201 131 250 133 221 b 158 156 146 181 151 165 b 217 128 168 140 182 128 b 290 194 257 128 279 160 b 303 282 301 229 303 269 b 257 407 303 342 282 382 b 181 442 232 432 199 442 l 118 442 l 118 492 l 181 492 b 290 443 210 492 253 478 b 351 282 318 415 351 365 b 217 79 351 161 304 79 b 82 289 128 79 82 146 z "},"4":{"ha":528,"x_min":0,"x_max":0,"o":"m 319 1021 l 439 1021 l 439 -3 l 390 -3 l 390 972 l 365 972 l 40 383 l 40 332 l 357 332 l 357 -3 l 308 -3 l 308 282 l 0 282 l 0 414 z m 357 892 l 357 364 l 81 364 l 81 389 z m 150 414 l 308 414 l 308 718 z "},"5":{"ha":517,"x_min":0,"x_max":0,"o":"m 131 360 l 0 360 l 0 1021 l 435 1021 l 435 971 l 49 971 l 49 406 l 82 406 b 106 521 82 439 88 485 b 217 585 124 557 157 585 b 351 383 307 585 351 518 l 351 285 b 217 79 351 164 300 79 b 117 125 172 79 139 99 b 82 214 94 151 82 186 l 82 236 l 131 236 l 131 214 b 150 163 131 203 136 181 b 217 128 164 144 183 128 b 285 185 250 128 272 151 b 303 285 297 217 303 256 l 303 383 b 294 468 303 421 300 449 b 257 528 283 507 274 517 b 217 536 249 533 235 536 b 157 510 179 536 167 521 b 131 406 139 486 131 451 z m 435 939 l 435 889 l 131 889 l 131 651 b 217 667 158 661 188 667 b 385 585 307 667 358 622 b 435 383 418 538 435 471 l 435 285 b 217 -3 435 133 363 -3 b 54 72 151 -3 94 24 b 0 214 19 113 0 165 l 0 236 l 49 236 l 49 214 b 92 104 49 176 65 136 b 217 46 125 65 167 46 b 344 119 271 46 314 71 b 385 285 371 163 385 219 l 385 383 b 217 618 385 535 328 618 b 90 558 163 618 119 599 l 82 546 l 82 939 z "},"6":{"ha":511,"x_min":0,"x_max":0,"o":"m 49 260 b 217 46 49 126 111 46 b 344 121 271 46 313 71 b 385 290 371 164 385 224 l 385 392 b 344 569 385 469 371 529 b 217 631 315 610 272 631 b 82 544 157 631 113 601 l 82 671 b 106 843 82 721 88 788 b 217 939 124 897 157 939 b 351 763 306 939 351 878 l 351 719 l 303 719 l 303 763 b 278 863 303 808 294 842 b 217 889 268 875 254 889 b 146 804 178 889 157 850 b 131 671 133 758 131 704 l 131 661 b 217 681 158 674 188 681 b 435 392 363 681 435 565 l 435 290 b 375 78 435 201 413 129 b 217 -3 336 26 282 -3 b 0 260 76 -3 0 108 l 0 671 b 46 911 0 772 15 853 b 217 1021 83 982 143 1021 b 435 763 360 1021 435 911 l 435 719 l 385 719 l 385 763 b 217 971 385 890 326 971 b 49 671 104 971 49 856 z m 82 393 b 217 599 82 515 132 599 b 351 392 307 599 351 529 l 351 290 b 217 79 351 167 300 79 b 82 260 129 79 82 144 z m 131 260 b 157 156 131 214 139 179 b 217 128 167 143 179 128 b 285 186 250 128 272 153 b 303 290 297 219 303 258 l 303 392 b 293 482 303 431 300 461 b 242 546 281 525 263 542 b 217 549 232 547 224 549 b 144 479 176 549 156 515 b 131 393 133 443 131 404 z "},"7":{"ha":596,"x_min":0,"x_max":0,"o":"m 0 971 l 0 1021 l 538 1021 l 538 889 l 535 889 l 160 -3 l 110 -3 l 499 931 l 499 971 z m 0 889 l 0 939 l 467 939 l 74 -3 l 17 -3 l 393 889 z "},"8":{"ha":539,"x_min":0,"x_max":0,"o":"m 399 508 l 411 493 b 464 285 446 444 464 375 b 232 -3 464 106 392 -3 b 0 285 71 -3 0 101 b 53 493 0 376 18 446 b 65 508 57 499 61 504 l 53 525 b 0 732 18 571 0 640 b 232 1021 0 915 72 1021 b 464 732 389 1021 464 911 b 411 525 464 642 446 574 z m 232 46 b 414 285 356 46 414 122 b 371 464 414 367 400 426 b 317 508 356 485 338 499 b 414 732 382 538 414 613 b 232 971 414 897 356 971 b 49 732 106 971 49 897 b 146 508 49 614 81 539 b 92 464 125 499 107 485 b 49 285 63 426 49 367 b 232 46 49 122 106 46 z m 382 732 b 232 525 382 588 338 525 b 82 732 126 525 82 588 b 232 939 82 876 126 939 b 382 732 338 939 382 876 z m 131 732 b 165 596 131 654 146 615 b 232 575 185 576 210 575 b 299 596 254 575 279 576 b 332 732 318 615 332 654 b 299 869 332 810 318 850 b 232 889 279 889 254 889 b 165 869 210 889 185 889 b 131 732 146 850 131 810 z m 232 493 b 382 285 338 493 382 431 b 232 79 382 140 338 79 b 82 285 126 79 82 140 b 232 493 82 431 126 493 z m 232 128 b 299 149 254 128 279 129 b 332 285 318 168 332 207 b 324 374 332 324 329 353 b 283 435 313 413 304 424 b 232 443 274 440 256 443 b 181 435 208 443 190 440 b 140 374 160 424 151 413 b 131 285 133 353 131 324 b 165 149 131 207 146 168 b 232 128 185 129 210 128 z "},"9":{"ha":511,"x_min":0,"x_max":0,"o":"m 435 346 b 389 104 435 242 418 164 b 217 -3 350 33 293 -3 b 50 79 146 -3 89 25 b 0 267 17 125 0 188 l 0 311 l 49 311 l 49 267 b 217 46 49 126 110 46 b 385 346 332 46 385 157 l 385 761 b 217 971 385 894 324 971 b 49 729 115 971 49 878 l 49 626 b 90 449 49 547 63 488 b 217 385 118 406 160 385 b 351 472 276 385 324 417 l 351 346 b 326 167 351 285 346 218 b 217 79 307 115 272 79 b 82 267 129 79 82 146 l 82 311 l 131 311 l 131 267 b 167 146 131 196 147 163 b 217 128 186 128 206 128 b 289 206 254 128 276 161 b 303 346 300 250 303 306 l 303 356 b 217 336 278 343 249 336 b 0 626 71 336 0 449 l 0 729 b 49 924 0 808 17 872 b 217 1021 88 986 146 1021 b 383 943 288 1021 343 994 b 435 761 418 896 435 835 z m 351 625 b 217 418 351 503 301 418 b 82 626 126 418 82 488 l 82 729 b 217 939 82 856 132 939 b 317 893 261 939 294 924 b 351 761 340 861 351 817 z m 303 761 b 268 874 303 824 286 857 b 217 889 250 889 228 889 b 142 815 174 889 153 853 b 131 729 131 778 131 736 l 131 626 b 140 535 131 586 133 556 b 192 469 153 490 172 474 b 217 467 201 468 210 467 b 290 538 257 467 279 500 b 303 625 301 575 303 614 z "},"A":{"ha":651,"x_min":0,"x_max":0,"o":"m 251 1024 l 356 1024 l 593 0 l 542 0 l 318 965 l 288 965 l 64 0 l 14 0 z m 303 885 l 422 367 l 182 367 z m 303 667 l 244 417 l 361 417 z m 149 0 l 97 0 l 175 335 l 431 335 l 508 0 l 458 0 l 392 285 l 214 285 z "},"B":{"ha":522,"x_min":0,"x_max":0,"o":"m 0 0 l 0 49 l 197 49 b 399 288 336 49 399 125 b 351 468 399 368 383 428 b 292 513 336 486 315 501 b 399 736 363 542 399 615 b 197 974 399 899 336 974 l 0 974 l 0 1024 l 197 1024 b 449 736 369 1024 449 919 b 389 525 449 643 429 574 b 378 511 385 519 382 515 b 389 499 383 506 388 501 b 449 288 429 450 449 381 b 197 0 449 103 369 0 z m 49 942 l 49 82 l 0 82 l 0 942 z m 82 528 l 82 942 l 197 942 b 367 736 318 942 367 881 b 197 528 367 590 315 528 z m 131 892 l 131 578 l 197 578 b 261 588 226 578 249 581 b 288 608 274 594 283 601 b 317 736 307 632 317 674 b 283 868 317 808 304 847 b 197 892 261 889 231 892 z m 82 82 l 82 496 l 197 496 b 367 288 315 496 367 433 b 197 82 367 144 318 82 z m 131 446 l 131 131 l 197 131 b 283 154 231 131 261 133 b 317 288 304 175 317 215 b 282 422 317 361 303 400 b 197 446 260 443 231 446 z "},"C":{"ha":568,"x_min":0,"x_max":0,"o":"m 486 667 l 436 667 l 436 732 b 243 974 436 892 371 974 b 97 913 179 974 131 953 b 49 732 65 869 49 810 l 49 292 b 113 94 49 192 75 129 b 243 49 150 60 199 49 b 372 94 288 49 335 60 b 436 292 410 129 436 192 l 436 358 l 486 358 l 486 292 b 426 82 486 201 467 132 b 243 0 397 44 343 0 b 125 28 193 0 156 11 b 58 82 94 43 74 64 b 0 292 19 131 0 200 l 0 732 b 58 942 0 822 19 893 b 125 997 74 960 94 981 b 243 1024 156 1013 193 1024 b 426 942 343 1024 397 979 b 486 732 467 892 486 822 z m 404 667 l 354 667 l 354 732 b 314 872 354 811 336 853 b 243 892 290 892 261 892 b 172 872 222 892 196 892 b 131 732 149 853 131 811 l 131 292 b 163 163 131 232 142 189 b 243 131 172 147 193 131 b 324 163 293 131 313 147 b 354 292 344 189 354 232 l 354 358 l 404 358 l 404 292 b 243 82 404 151 350 82 b 82 292 136 82 82 151 l 82 732 b 243 942 82 872 136 942 b 404 732 350 942 404 872 z "},"D":{"ha":544,"x_min":0,"x_max":0,"o":"m 464 296 b 204 0 464 108 381 0 l 0 0 l 0 49 l 204 49 b 365 113 275 49 328 69 b 415 296 399 154 415 215 l 415 726 b 204 974 415 888 347 974 l 0 974 l 0 1024 l 204 1024 b 403 940 292 1024 358 996 b 464 726 443 892 464 819 z m 0 942 l 49 942 l 49 82 l 0 82 z m 82 82 l 82 942 l 204 942 b 339 889 267 942 313 924 b 382 726 368 854 382 800 l 382 296 b 339 133 382 222 368 168 b 204 82 311 99 267 82 z m 131 892 l 131 131 l 204 131 b 293 156 238 131 269 133 b 332 296 315 178 332 219 l 332 726 b 293 867 332 803 315 844 b 204 892 269 889 238 892 z "},"E":{"ha":517,"x_min":0,"x_max":0,"o":"m 49 974 l 49 49 l 424 49 l 424 0 l 0 0 l 0 1024 l 424 1024 l 424 974 z m 82 942 l 424 942 l 424 892 l 131 892 l 131 578 l 424 578 l 424 528 l 82 528 z m 82 496 l 424 496 l 424 446 l 131 446 l 131 131 l 424 131 l 424 82 l 82 82 z "},"F":{"ha":517,"x_min":0,"x_max":0,"o":"m 49 974 l 49 0 l 0 0 l 0 1024 l 424 1024 l 424 974 z m 82 942 l 424 942 l 424 892 l 131 892 l 131 578 l 424 578 l 424 528 l 82 528 z m 131 0 l 82 0 l 82 496 l 424 496 l 424 446 l 131 446 z "},"G":{"ha":574,"x_min":0,"x_max":0,"o":"m 488 669 l 439 669 l 439 735 b 243 975 439 892 375 975 b 49 735 114 975 49 892 l 49 293 b 243 50 49 133 115 50 b 439 293 372 50 439 133 l 439 453 l 197 453 l 197 501 l 488 501 l 488 293 b 428 82 488 201 468 131 b 243 1 399 44 343 1 b 60 82 143 1 89 44 b 0 293 19 131 0 201 l 0 735 b 243 1025 0 917 82 1025 b 488 735 406 1025 488 917 z m 406 669 l 356 669 l 356 735 b 321 869 356 808 342 847 b 243 893 299 890 271 893 b 167 869 215 893 188 890 b 131 735 144 847 131 808 l 131 293 b 172 153 131 211 149 172 b 243 132 196 133 222 132 b 315 153 264 132 292 133 b 356 293 338 172 356 211 l 356 371 l 197 371 l 197 419 l 406 419 l 406 293 b 364 133 406 219 392 167 b 243 83 339 100 299 83 b 124 133 189 83 149 100 b 82 293 96 167 82 219 l 82 735 b 243 943 82 879 136 943 b 406 735 350 943 406 879 z "},"H":{"ha":568,"x_min":0,"x_max":0,"o":"m 49 1025 l 49 1 l 0 1 l 0 1025 z m 378 529 l 82 529 l 82 1025 l 131 1025 l 131 578 l 328 578 l 328 1025 l 378 1025 z m 410 1 l 410 1025 l 460 1025 l 460 1 z m 82 496 l 378 496 l 378 1 l 328 1 l 328 447 l 131 447 l 131 1 l 82 1 z "},"I":{"ha":281,"x_min":0,"x_max":0,"o":"m 42 1 l 42 1025 l 90 1025 l 90 1 z m 172 1 l 124 1 l 124 1025 l 172 1025 z "},"J":{"ha":563,"x_min":0,"x_max":0,"o":"m 410 1025 l 458 1025 l 458 274 b 403 76 458 189 440 122 b 229 1 376 42 324 1 b 56 76 136 1 83 42 b 0 274 18 122 0 189 l 0 339 l 49 339 l 49 274 b 229 50 49 125 111 50 b 410 274 350 50 410 128 z m 82 339 l 131 339 l 131 274 b 167 150 131 203 146 167 b 229 132 188 132 211 132 b 279 142 253 132 269 135 b 301 158 289 147 297 153 b 328 274 319 182 328 219 l 328 1025 l 376 1025 l 376 274 b 229 83 376 142 329 83 b 82 274 131 83 82 142 z "},"K":{"ha":635,"x_min":0,"x_max":0,"o":"m 1 1025 l 50 1025 l 50 1 l 1 1 l 1 372 l 0 372 l 1 375 z m 479 1025 l 83 413 l 83 1025 l 132 1025 l 132 578 l 422 1025 z m 514 1 l 210 549 l 518 1025 l 579 1025 l 268 546 l 569 1 z m 83 1 l 83 351 l 190 517 l 475 1 l 419 1 l 186 421 l 132 336 l 132 1 z "},"L":{"ha":494,"x_min":0,"x_max":0,"o":"m 0 1025 l 49 1025 l 49 50 l 446 50 l 446 1 l 0 1 z m 446 83 l 82 83 l 82 1025 l 131 1025 l 131 132 l 446 132 z "},"M":{"ha":747,"x_min":0,"x_max":0,"o":"m 528 1025 l 643 1025 l 643 1 l 594 1 l 594 975 l 565 975 l 322 126 l 78 975 l 49 975 l 49 1 l 0 1 l 0 1025 l 115 1025 l 322 304 z m 131 1 l 82 1 l 82 843 l 322 7 l 561 843 l 561 1 l 513 1 l 513 492 l 371 1 l 272 1 l 131 492 z "},"N":{"ha":590,"x_min":0,"x_max":0,"o":"m 410 1026 l 410 153 l 78 976 l 49 976 l 49 3 l 0 3 l 0 1026 l 110 1026 l 360 407 l 360 1026 z m 414 53 l 442 53 l 442 1026 l 492 1026 l 492 3 l 381 3 l 131 622 l 131 3 l 82 3 l 82 876 z "},"O":{"ha":563,"x_min":0,"x_max":0,"o":"m 486 294 b 428 85 486 203 467 133 b 363 31 413 67 393 46 b 243 3 332 14 293 3 b 58 85 143 3 88 47 b 0 294 19 133 0 203 l 0 736 b 58 946 0 826 19 896 b 243 1026 88 983 143 1026 b 428 946 343 1026 399 983 b 486 736 467 896 486 826 z m 438 736 b 243 978 438 893 371 978 b 49 736 115 978 49 893 l 49 294 b 243 51 49 138 117 51 b 438 294 369 51 438 138 z m 404 294 b 243 85 404 154 350 85 b 82 294 136 85 82 154 l 82 736 b 124 894 82 808 96 861 b 243 944 149 928 189 944 b 363 894 297 944 338 928 b 404 736 390 861 404 808 z m 356 736 b 314 876 356 815 338 857 b 243 896 290 896 261 896 b 172 876 222 896 196 896 b 131 736 149 857 131 815 l 131 294 b 172 154 131 213 149 174 b 243 133 196 135 222 133 b 314 154 261 133 290 135 b 356 294 338 174 356 213 z "},"P":{"ha":533,"x_min":0,"x_max":0,"o":"m 131 450 l 131 3 l 82 3 l 82 499 l 213 499 b 424 739 357 499 424 574 b 213 978 424 901 357 978 l 0 978 l 0 1026 l 213 1026 b 411 950 300 1026 367 1001 b 474 739 453 903 474 832 b 213 450 474 551 389 450 z m 0 944 l 49 944 l 49 3 l 0 3 z m 82 532 l 82 944 l 213 944 b 392 739 339 944 392 885 b 213 532 392 593 339 532 z m 131 896 l 131 581 l 213 581 b 286 593 249 581 274 585 b 311 613 299 601 307 608 b 342 739 332 636 342 678 b 310 867 342 806 331 844 b 213 896 288 889 256 896 z "},"Q":{"ha":563,"x_min":0,"x_max":0,"o":"m 479 -62 l 411 -62 l 344 19 b 243 0 315 7 282 0 b 58 85 143 0 88 46 b 0 297 19 135 0 206 l 0 736 b 88 974 0 860 38 933 b 243 1024 136 1014 197 1024 b 399 974 288 1024 349 1014 b 486 736 449 933 486 860 l 486 297 b 442 107 486 219 471 156 l 582 -62 l 522 -62 l 382 107 l 386 110 b 389 114 386 111 388 113 b 436 297 421 158 436 219 l 436 736 b 243 974 436 894 372 974 b 49 736 114 974 49 894 l 49 297 b 243 49 49 140 115 49 b 358 83 289 49 326 60 z m 260 253 l 318 253 l 347 217 b 354 297 351 238 354 269 l 354 736 b 319 868 354 808 340 847 b 243 892 297 889 271 892 b 167 868 215 892 188 889 b 131 736 144 847 131 808 l 131 297 b 163 164 131 235 142 190 b 243 131 174 149 193 131 l 253 131 l 154 253 l 217 253 l 338 110 b 243 82 314 92 282 82 b 82 297 136 82 82 154 l 82 736 b 243 942 82 876 132 942 b 403 736 354 942 403 876 l 403 297 b 360 132 403 222 389 167 z "},"R":{"ha":579,"x_min":0,"x_max":0,"o":"m 475 0 l 425 0 l 425 303 b 365 465 425 371 406 425 b 307 503 349 481 329 493 b 424 732 385 532 424 608 b 213 974 424 897 358 974 l 0 974 l 0 1024 l 213 1024 b 472 732 389 1024 472 922 b 411 517 472 638 451 565 b 406 510 410 515 407 513 b 397 503 403 507 400 504 b 475 303 447 454 475 388 z m 0 942 l 49 942 l 49 0 l 0 0 z m 82 521 l 82 942 l 213 942 b 390 732 339 942 390 881 b 213 521 390 582 339 521 z m 131 892 l 131 569 l 213 569 b 286 582 247 569 272 574 b 311 601 299 590 307 597 b 342 732 332 628 342 671 b 310 864 342 800 331 840 b 213 892 288 886 256 892 z m 393 0 l 343 0 l 343 303 b 213 438 343 393 300 438 l 131 438 l 131 0 l 82 0 l 82 488 l 213 488 b 393 303 328 488 393 421 z "},"S":{"ha":551,"x_min":0,"x_max":0,"o":"m 489 665 l 439 665 l 439 731 b 244 974 439 893 374 974 b 49 731 118 974 49 871 b 118 561 49 651 79 597 b 226 494 156 525 200 506 l 250 483 b 346 429 274 474 313 460 b 407 283 379 399 407 351 b 244 82 407 156 346 82 b 82 290 135 82 82 146 l 82 356 l 131 356 l 131 290 b 163 161 131 231 142 188 b 188 142 167 154 175 149 b 244 131 200 135 218 131 b 339 186 294 131 322 156 b 357 283 354 217 357 256 b 317 388 357 332 340 364 b 232 438 293 410 261 425 l 207 449 b 83 525 178 461 128 482 b 0 731 28 579 0 647 b 68 943 0 818 24 892 b 244 1024 111 993 172 1024 b 429 943 344 1024 400 981 b 489 731 469 892 489 821 z m 0 356 l 49 356 l 49 290 b 244 49 49 131 115 49 b 390 118 306 49 357 72 b 439 283 422 158 439 217 b 369 451 439 363 407 417 b 263 514 331 486 286 504 l 240 524 b 142 585 214 535 175 551 b 82 731 108 617 82 663 b 118 872 82 779 92 832 b 244 942 144 913 185 942 b 407 731 351 942 407 875 l 407 665 l 357 665 l 357 731 b 315 872 357 810 339 853 b 244 892 292 892 263 892 b 149 826 190 892 164 863 b 131 731 132 790 131 749 b 171 625 131 682 147 650 b 260 569 194 600 226 582 l 282 560 b 403 488 308 549 358 531 b 489 283 460 435 489 367 b 244 0 489 126 401 0 b 0 290 82 0 0 107 z "},"T":{"ha":640,"x_min":0,"x_max":0,"o":"m 565 974 l -14 974 l -14 1024 l 565 1024 z m -14 942 l 260 942 l 260 0 l 210 0 l 210 892 l -14 892 z m 292 0 l 292 942 l 565 942 l 565 892 l 342 892 l 342 0 z "},"U":{"ha":563,"x_min":0,"x_max":0,"o":"m 410 1024 l 458 1024 l 458 272 b 403 76 458 188 440 122 b 229 0 375 39 322 0 b 56 76 136 0 83 39 b 0 272 18 122 0 188 l 0 1024 l 49 1024 l 49 272 b 229 49 49 126 111 49 b 364 107 289 49 335 68 b 410 272 394 144 410 199 z m 82 1024 l 131 1024 l 131 272 b 167 149 131 201 146 165 b 229 131 188 131 211 131 b 292 149 247 131 271 131 b 328 272 313 165 328 201 l 328 1024 l 376 1024 l 376 272 b 229 82 376 140 329 82 b 82 272 131 82 82 140 z "},"V":{"ha":640,"x_min":0,"x_max":0,"o":"m 292 54 l 319 54 l 563 1024 l 614 1024 l 357 0 l 254 0 l 0 1024 l 49 1024 z m 306 336 l 479 1024 l 528 1024 l 306 133 l 83 1024 l 135 1024 z "},"W":{"ha":1000,"x_min":0,"x_max":0,"o":"m 658 54 l 688 54 l 900 1024 l 951 1024 l 725 0 l 619 0 l 476 653 l 332 0 l 226 0 l 0 1024 l 51 1024 l 265 54 l 293 54 l 476 882 z m 672 142 l 490 969 l 461 969 l 279 142 l 85 1024 l 135 1024 l 279 369 l 424 1024 l 529 1024 l 672 369 l 817 1024 l 867 1024 z "},"X":{"ha":692,"x_min":0,"x_max":0,"o":"m 58 1024 l 299 513 l 57 0 l 0 0 l 242 511 l 4 1024 z m 485 1024 l 540 1024 l 317 551 l 94 1024 l 150 1024 l 315 665 z m 335 513 l 576 1024 l 631 1024 l 388 511 l 628 0 l 576 0 z m 146 0 l 93 0 l 317 474 l 540 0 l 483 0 l 315 358 z "},"Y":{"ha":719,"x_min":0,"x_max":0,"o":"m 0 1024 l 283 507 l 283 0 l 236 0 l 236 494 l -56 1024 z m 510 1024 l 563 1024 l 300 546 l 38 1024 l 94 1024 l 301 647 z m 315 0 l 315 507 l 600 1024 l 660 1024 l 367 494 l 367 0 z "},"Z":{"ha":635,"x_min":0,"x_max":0,"o":"m 528 1024 l 528 897 l 169 131 l 550 131 l 550 82 l 107 82 l 107 110 l 481 906 l 481 974 l 0 974 l 0 1024 z m 447 915 l 449 915 l 71 110 l 71 49 l 550 49 l 550 0 l 22 0 l 22 128 l 381 892 l 0 892 l 0 942 l 447 942 z "},"a":{"ha":651,"x_min":0,"x_max":0,"o":"m 251 1024 l 356 1024 l 593 0 l 542 0 l 318 965 l 288 965 l 64 0 l 14 0 z m 303 885 l 422 367 l 182 367 z m 303 667 l 244 417 l 361 417 z m 149 0 l 97 0 l 175 335 l 431 335 l 508 0 l 458 0 l 392 285 l 214 285 z "},"b":{"ha":522,"x_min":0,"x_max":0,"o":"m 0 0 l 0 49 l 197 49 b 399 288 336 49 399 125 b 351 468 399 368 383 428 b 292 513 336 486 315 501 b 399 736 363 542 399 615 b 197 974 399 899 336 974 l 0 974 l 0 1024 l 197 1024 b 449 736 369 1024 449 919 b 389 525 449 643 429 574 b 378 511 385 519 382 515 b 389 499 383 506 388 501 b 449 288 429 450 449 381 b 197 0 449 103 369 0 z m 49 942 l 49 82 l 0 82 l 0 942 z m 82 528 l 82 942 l 197 942 b 367 736 318 942 367 881 b 197 528 367 590 315 528 z m 131 892 l 131 578 l 197 578 b 261 588 226 578 249 581 b 288 608 274 594 283 601 b 317 736 307 632 317 674 b 283 868 317 808 304 847 b 197 892 261 889 231 892 z m 82 82 l 82 496 l 197 496 b 367 288 315 496 367 433 b 197 82 367 144 318 82 z m 131 446 l 131 131 l 197 131 b 283 154 231 131 261 133 b 317 288 304 175 317 215 b 282 422 317 361 303 400 b 197 446 260 443 231 446 z "},"c":{"ha":568,"x_min":0,"x_max":0,"o":"m 486 667 l 436 667 l 436 732 b 243 974 436 892 371 974 b 97 913 179 974 131 953 b 49 732 65 869 49 810 l 49 292 b 113 94 49 192 75 129 b 243 49 150 60 199 49 b 372 94 288 49 335 60 b 436 292 410 129 436 192 l 436 358 l 486 358 l 486 292 b 426 82 486 201 467 132 b 243 0 397 44 343 0 b 125 28 193 0 156 11 b 58 82 94 43 74 64 b 0 292 19 131 0 200 l 0 732 b 58 942 0 822 19 893 b 125 997 74 960 94 981 b 243 1024 156 1013 193 1024 b 426 942 343 1024 397 979 b 486 732 467 892 486 822 z m 404 667 l 354 667 l 354 732 b 314 872 354 811 336 853 b 243 892 290 892 261 892 b 172 872 222 892 196 892 b 131 732 149 853 131 811 l 131 292 b 163 163 131 232 142 189 b 243 131 172 147 193 131 b 324 163 293 131 313 147 b 354 292 344 189 354 232 l 354 358 l 404 358 l 404 292 b 243 82 404 151 350 82 b 82 292 136 82 82 151 l 82 732 b 243 942 82 872 136 942 b 404 732 350 942 404 872 z "},"d":{"ha":544,"x_min":0,"x_max":0,"o":"m 464 296 b 204 0 464 108 381 0 l 0 0 l 0 49 l 204 49 b 365 113 275 49 328 69 b 415 296 399 154 415 215 l 415 726 b 204 974 415 888 347 974 l 0 974 l 0 1024 l 204 1024 b 403 940 292 1024 358 996 b 464 726 443 892 464 819 z m 0 942 l 49 942 l 49 82 l 0 82 z m 82 82 l 82 942 l 204 942 b 339 889 267 942 313 924 b 382 726 368 854 382 800 l 382 296 b 339 133 382 222 368 168 b 204 82 311 99 267 82 z m 131 892 l 131 131 l 204 131 b 293 156 238 131 269 133 b 332 296 315 178 332 219 l 332 726 b 293 867 332 803 315 844 b 204 892 269 889 238 892 z "},"e":{"ha":517,"x_min":0,"x_max":0,"o":"m 49 974 l 49 49 l 424 49 l 424 0 l 0 0 l 0 1024 l 424 1024 l 424 974 z m 82 942 l 424 942 l 424 892 l 131 892 l 131 578 l 424 578 l 424 528 l 82 528 z m 82 496 l 424 496 l 424 446 l 131 446 l 131 131 l 424 131 l 424 82 l 82 82 z "},"f":{"ha":517,"x_min":0,"x_max":0,"o":"m 49 974 l 49 0 l 0 0 l 0 1024 l 424 1024 l 424 974 z m 82 942 l 424 942 l 424 892 l 131 892 l 131 578 l 424 578 l 424 528 l 82 528 z m 131 0 l 82 0 l 82 496 l 424 496 l 424 446 l 131 446 z "},"g":{"ha":574,"x_min":0,"x_max":0,"o":"m 488 669 l 439 669 l 439 735 b 243 975 439 892 375 975 b 49 735 114 975 49 892 l 49 293 b 243 50 49 133 115 50 b 439 293 372 50 439 133 l 439 453 l 197 453 l 197 501 l 488 501 l 488 293 b 428 82 488 201 468 131 b 243 1 399 44 343 1 b 60 82 143 1 89 44 b 0 293 19 131 0 201 l 0 735 b 243 1025 0 917 82 1025 b 488 735 406 1025 488 917 z m 406 669 l 356 669 l 356 735 b 321 869 356 808 342 847 b 243 893 299 890 271 893 b 167 869 215 893 188 890 b 131 735 144 847 131 808 l 131 293 b 172 153 131 211 149 172 b 243 132 196 133 222 132 b 315 153 264 132 292 133 b 356 293 338 172 356 211 l 356 371 l 197 371 l 197 419 l 406 419 l 406 293 b 364 133 406 219 392 167 b 243 83 339 100 299 83 b 124 133 189 83 149 100 b 82 293 96 167 82 219 l 82 735 b 243 943 82 879 136 943 b 406 735 350 943 406 879 z "},"h":{"ha":568,"x_min":0,"x_max":0,"o":"m 49 1025 l 49 1 l 0 1 l 0 1025 z m 378 529 l 82 529 l 82 1025 l 131 1025 l 131 578 l 328 578 l 328 1025 l 378 1025 z m 410 1 l 410 1025 l 460 1025 l 460 1 z m 82 496 l 378 496 l 378 1 l 328 1 l 328 447 l 131 447 l 131 1 l 82 1 z "},"i":{"ha":281,"x_min":0,"x_max":0,"o":"m 42 1 l 42 1025 l 90 1025 l 90 1 z m 172 1 l 124 1 l 124 1025 l 172 1025 z "},"ı":{"ha":281,"x_min":0,"x_max":0,"o":"m 42 1 l 42 1025 l 90 1025 l 90 1 z m 172 1 l 124 1 l 124 1025 l 172 1025 z "},"j":{"ha":563,"x_min":0,"x_max":0,"o":"m 410 1025 l 458 1025 l 458 274 b 403 76 458 189 440 122 b 229 1 376 42 324 1 b 56 76 136 1 83 42 b 0 274 18 122 0 189 l 0 339 l 49 339 l 49 274 b 229 50 49 125 111 50 b 410 274 350 50 410 128 z m 82 339 l 131 339 l 131 274 b 167 150 131 203 146 167 b 229 132 188 132 211 132 b 279 142 253 132 269 135 b 301 158 289 147 297 153 b 328 274 319 182 328 219 l 328 1025 l 376 1025 l 376 274 b 229 83 376 142 329 83 b 82 274 131 83 82 142 z "},"k":{"ha":635,"x_min":0,"x_max":0,"o":"m 1 1025 l 50 1025 l 50 1 l 1 1 l 1 372 l 0 372 l 1 375 z m 479 1025 l 83 413 l 83 1025 l 132 1025 l 132 578 l 422 1025 z m 514 1 l 210 549 l 518 1025 l 579 1025 l 268 546 l 569 1 z m 83 1 l 83 351 l 190 517 l 475 1 l 419 1 l 186 421 l 132 336 l 132 1 z "},"l":{"ha":494,"x_min":0,"x_max":0,"o":"m 0 1025 l 49 1025 l 49 50 l 446 50 l 446 1 l 0 1 z m 446 83 l 82 83 l 82 1025 l 131 1025 l 131 132 l 446 132 z "},"m":{"ha":747,"x_min":0,"x_max":0,"o":"m 528 1025 l 643 1025 l 643 1 l 594 1 l 594 975 l 565 975 l 322 126 l 78 975 l 49 975 l 49 1 l 0 1 l 0 1025 l 115 1025 l 322 304 z m 131 1 l 82 1 l 82 843 l 322 7 l 561 843 l 561 1 l 513 1 l 513 492 l 371 1 l 272 1 l 131 492 z "},"n":{"ha":590,"x_min":0,"x_max":0,"o":"m 410 1026 l 410 153 l 78 976 l 49 976 l 49 3 l 0 3 l 0 1026 l 110 1026 l 360 407 l 360 1026 z m 414 53 l 442 53 l 442 1026 l 492 1026 l 492 3 l 381 3 l 131 622 l 131 3 l 82 3 l 82 876 z "},"o":{"ha":563,"x_min":0,"x_max":0,"o":"m 486 294 b 428 85 486 203 467 133 b 363 31 413 67 393 46 b 243 3 332 14 293 3 b 58 85 143 3 88 47 b 0 294 19 133 0 203 l 0 736 b 58 946 0 826 19 896 b 243 1026 88 983 143 1026 b 428 946 343 1026 399 983 b 486 736 467 896 486 826 z m 438 736 b 243 978 438 893 371 978 b 49 736 115 978 49 893 l 49 294 b 243 51 49 138 117 51 b 438 294 369 51 438 138 z m 404 294 b 243 85 404 154 350 85 b 82 294 136 85 82 154 l 82 736 b 124 894 82 808 96 861 b 243 944 149 928 189 944 b 363 894 297 944 338 928 b 404 736 390 861 404 808 z m 356 736 b 314 876 356 815 338 857 b 243 896 290 896 261 896 b 172 876 222 896 196 896 b 131 736 149 857 131 815 l 131 294 b 172 154 131 213 149 174 b 243 133 196 135 222 133 b 314 154 261 133 290 135 b 356 294 338 174 356 213 z "},"p":{"ha":533,"x_min":0,"x_max":0,"o":"m 131 450 l 131 3 l 82 3 l 82 499 l 213 499 b 424 739 357 499 424 574 b 213 978 424 901 357 978 l 0 978 l 0 1026 l 213 1026 b 411 950 300 1026 367 1001 b 474 739 453 903 474 832 b 213 450 474 551 389 450 z m 0 944 l 49 944 l 49 3 l 0 3 z m 82 532 l 82 944 l 213 944 b 392 739 339 944 392 885 b 213 532 392 593 339 532 z m 131 896 l 131 581 l 213 581 b 286 593 249 581 274 585 b 311 613 299 601 307 608 b 342 739 332 636 342 678 b 310 867 342 806 331 844 b 213 896 288 889 256 896 z "},"q":{"ha":563,"x_min":0,"x_max":0,"o":"m 479 -62 l 411 -62 l 344 19 b 243 0 315 7 282 0 b 58 85 143 0 88 46 b 0 297 19 135 0 206 l 0 736 b 88 974 0 860 38 933 b 243 1024 136 1014 197 1024 b 399 974 288 1024 349 1014 b 486 736 449 933 486 860 l 486 297 b 442 107 486 219 471 156 l 582 -62 l 522 -62 l 382 107 l 386 110 b 389 114 386 111 388 113 b 436 297 421 158 436 219 l 436 736 b 243 974 436 894 372 974 b 49 736 114 974 49 894 l 49 297 b 243 49 49 140 115 49 b 358 83 289 49 326 60 z m 260 253 l 318 253 l 347 217 b 354 297 351 238 354 269 l 354 736 b 319 868 354 808 340 847 b 243 892 297 889 271 892 b 167 868 215 892 188 889 b 131 736 144 847 131 808 l 131 297 b 163 164 131 235 142 190 b 243 131 174 149 193 131 l 253 131 l 154 253 l 217 253 l 338 110 b 243 82 314 92 282 82 b 82 297 136 82 82 154 l 82 736 b 243 942 82 876 132 942 b 403 736 354 942 403 876 l 403 297 b 360 132 403 222 389 167 z "},"r":{"ha":579,"x_min":0,"x_max":0,"o":"m 475 0 l 425 0 l 425 303 b 365 465 425 371 406 425 b 307 503 349 481 329 493 b 424 732 385 532 424 608 b 213 974 424 897 358 974 l 0 974 l 0 1024 l 213 1024 b 472 732 389 1024 472 922 b 411 517 472 638 451 565 b 406 510 410 515 407 513 b 397 503 403 507 400 504 b 475 303 447 454 475 388 z m 0 942 l 49 942 l 49 0 l 0 0 z m 82 521 l 82 942 l 213 942 b 390 732 339 942 390 881 b 213 521 390 582 339 521 z m 131 892 l 131 569 l 213 569 b 286 582 247 569 272 574 b 311 601 299 590 307 597 b 342 732 332 628 342 671 b 310 864 342 800 331 840 b 213 892 288 886 256 892 z m 393 0 l 343 0 l 343 303 b 213 438 343 393 300 438 l 131 438 l 131 0 l 82 0 l 82 488 l 213 488 b 393 303 328 488 393 421 z "},"s":{"ha":551,"x_min":0,"x_max":0,"o":"m 489 665 l 439 665 l 439 731 b 244 974 439 893 374 974 b 49 731 118 974 49 871 b 118 561 49 651 79 597 b 226 494 156 525 200 506 l 250 483 b 346 429 274 474 313 460 b 407 283 379 399 407 351 b 244 82 407 156 346 82 b 82 290 135 82 82 146 l 82 356 l 131 356 l 131 290 b 163 161 131 231 142 188 b 188 142 167 154 175 149 b 244 131 200 135 218 131 b 339 186 294 131 322 156 b 357 283 354 217 357 256 b 317 388 357 332 340 364 b 232 438 293 410 261 425 l 207 449 b 83 525 178 461 128 482 b 0 731 28 579 0 647 b 68 943 0 818 24 892 b 244 1024 111 993 172 1024 b 429 943 344 1024 400 981 b 489 731 469 892 489 821 z m 0 356 l 49 356 l 49 290 b 244 49 49 131 115 49 b 390 118 306 49 357 72 b 439 283 422 158 439 217 b 369 451 439 363 407 417 b 263 514 331 486 286 504 l 240 524 b 142 585 214 535 175 551 b 82 731 108 617 82 663 b 118 872 82 779 92 832 b 244 942 144 913 185 942 b 407 731 351 942 407 875 l 407 665 l 357 665 l 357 731 b 315 872 357 810 339 853 b 244 892 292 892 263 892 b 149 826 190 892 164 863 b 131 731 132 790 131 749 b 171 625 131 682 147 650 b 260 569 194 600 226 582 l 282 560 b 403 488 308 549 358 531 b 489 283 460 435 489 367 b 244 0 489 126 401 0 b 0 290 82 0 0 107 z "},"t":{"ha":640,"x_min":0,"x_max":0,"o":"m 565 974 l -14 974 l -14 1024 l 565 1024 z m -14 942 l 260 942 l 260 0 l 210 0 l 210 892 l -14 892 z m 292 0 l 292 942 l 565 942 l 565 892 l 342 892 l 342 0 z "},"u":{"ha":563,"x_min":0,"x_max":0,"o":"m 410 1024 l 458 1024 l 458 272 b 403 76 458 188 440 122 b 229 0 375 39 322 0 b 56 76 136 0 83 39 b 0 272 18 122 0 188 l 0 1024 l 49 1024 l 49 272 b 229 49 49 126 111 49 b 364 107 289 49 335 68 b 410 272 394 144 410 199 z m 82 1024 l 131 1024 l 131 272 b 167 149 131 201 146 165 b 229 131 188 131 211 131 b 292 149 247 131 271 131 b 328 272 313 165 328 201 l 328 1024 l 376 1024 l 376 272 b 229 82 376 140 329 82 b 82 272 131 82 82 140 z "},"v":{"ha":640,"x_min":0,"x_max":0,"o":"m 292 54 l 319 54 l 563 1024 l 614 1024 l 357 0 l 254 0 l 0 1024 l 49 1024 z m 306 336 l 479 1024 l 528 1024 l 306 133 l 83 1024 l 135 1024 z "},"w":{"ha":1000,"x_min":0,"x_max":0,"o":"m 658 54 l 688 54 l 900 1024 l 951 1024 l 725 0 l 619 0 l 476 653 l 332 0 l 226 0 l 0 1024 l 51 1024 l 265 54 l 293 54 l 476 882 z m 672 142 l 490 969 l 461 969 l 279 142 l 85 1024 l 135 1024 l 279 369 l 424 1024 l 529 1024 l 672 369 l 817 1024 l 867 1024 z "},"x":{"ha":692,"x_min":0,"x_max":0,"o":"m 58 1024 l 299 513 l 57 0 l 0 0 l 242 511 l 4 1024 z m 485 1024 l 540 1024 l 317 551 l 94 1024 l 150 1024 l 315 665 z m 335 513 l 576 1024 l 631 1024 l 388 511 l 628 0 l 576 0 z m 146 0 l 93 0 l 317 474 l 540 0 l 483 0 l 315 358 z "},"y":{"ha":719,"x_min":0,"x_max":0,"o":"m 0 1024 l 283 507 l 283 0 l 236 0 l 236 494 l -56 1024 z m 510 1024 l 563 1024 l 300 546 l 38 1024 l 94 1024 l 301 647 z m 315 0 l 315 507 l 600 1024 l 660 1024 l 367 494 l 367 0 z "},"z":{"ha":635,"x_min":0,"x_max":0,"o":"m 528 1024 l 528 897 l 169 131 l 550 131 l 550 82 l 107 82 l 107 110 l 481 906 l 481 974 l 0 974 l 0 1024 z m 447 915 l 449 915 l 71 110 l 71 49 l 550 49 l 550 0 l 22 0 l 22 128 l 381 892 l 0 892 l 0 942 l 447 942 z "},"*":{"ha":511,"x_min":0,"x_max":0,"o":"m 163 1025 l 211 1025 l 211 829 l 29 897 l 46 943 l 163 900 z m 426 899 l 244 829 l 244 1025 l 293 1025 l 293 900 l 410 943 z m 428 678 l 390 646 l 256 799 l 438 868 l 456 821 l 340 778 z m 200 799 l 67 644 l 28 678 l 115 778 l 0 821 l 17 867 z m 126 592 l 90 624 l 228 781 l 365 624 l 329 592 l 228 706 z "},"\\":{"ha":533,"x_min":0,"x_max":0,"o":"m 0 1025 l 50 1025 l 433 1 l 379 1 z m 468 1 l 85 1025 l 140 1025 l 519 1 z "},"•":{"ha":1157,"x_min":0,"x_max":0,"o":""},":":{"ha":203,"x_min":0,"x_max":0,"o":"m 131 611 l 0 611 l 0 804 l 131 804 z m 49 756 l 49 660 l 82 660 l 82 756 z m 131 422 l 131 229 l 0 229 l 0 422 z m 82 278 l 82 372 l 49 372 l 49 278 z "},",":{"ha":219,"x_min":0,"x_max":0,"o":"m 131 -119 l 0 6 l 0 149 l 131 149 z m 49 99 l 49 31 l 82 0 l 82 99 z "},"!":{"ha":203,"x_min":0,"x_max":0,"o":"m 0 226 l 0 1026 l 49 1026 l 49 226 z m 131 226 l 82 226 l 82 1026 l 131 1026 z m 49 150 l 49 51 l 82 51 l 82 150 l 131 150 l 131 3 l 0 3 l 0 150 z "},"#":{"ha":793,"x_min":0,"x_max":0,"o":"m 296 1026 l 346 1026 l 275 661 l 15 661 l 15 711 l 235 711 z m 515 661 l 308 661 l 381 1026 l 429 1026 l 368 711 l 475 711 l 535 1026 l 588 1026 z m 767 661 l 549 661 l 621 1026 l 668 1026 l 608 711 l 767 711 z m 15 629 l 268 629 l 224 399 l -28 399 l -28 449 l 183 449 l 208 579 l 15 579 z m 510 629 l 464 399 l 257 399 l 301 629 z m 724 399 l 497 399 l 543 629 l 767 629 l 767 579 l 583 579 l 557 449 l 724 449 z m 424 449 l 450 579 l 343 579 l 317 449 z m -28 367 l 217 367 l 144 0 l 96 0 l 157 317 l -28 317 z m 250 367 l 457 367 l 385 0 l 338 0 l 399 317 l 292 317 l 229 0 l 178 0 z m 471 0 l 418 0 l 490 367 l 724 367 l 724 317 l 532 317 z "},".":{"ha":258,"x_min":0,"x_max":0,"o":"m 131 1 l 0 1 l 0 149 l 131 149 z m 49 99 l 49 50 l 82 50 l 82 99 z "},"?":{"ha":506,"x_min":0,"x_max":0,"o":"m 435 754 l 435 743 l 433 743 b 375 557 432 669 406 607 b 283 447 344 507 307 471 l 267 431 b 246 296 246 404 246 368 l 246 228 l 196 228 l 196 296 b 229 463 196 369 196 422 l 249 482 b 331 581 271 504 303 536 b 385 743 358 624 381 678 l 385 754 b 344 904 383 814 368 865 b 217 976 313 953 271 976 b 49 743 106 976 49 893 l 49 676 l 0 676 l 0 743 b 217 1026 0 914 71 1026 b 386 931 288 1026 347 993 b 433 754 417 882 432 822 z m 131 676 l 82 676 l 82 743 b 217 944 82 878 126 944 b 351 750 300 944 351 860 b 304 599 351 690 331 639 b 225 504 278 558 247 526 l 204 483 b 164 296 164 435 164 374 l 164 228 l 114 228 l 114 296 b 121 414 114 339 114 376 b 167 515 126 451 140 483 l 190 539 b 261 621 208 557 238 586 b 303 749 283 656 301 699 b 283 843 303 778 296 814 b 217 894 271 872 250 894 b 164 876 204 894 182 896 b 131 743 146 857 131 819 z m 163 51 l 196 51 l 196 150 l 244 150 l 244 3 l 114 3 l 114 150 l 163 150 z "},"\"":{"ha":393,"x_min":0,"x_max":0,"o":"m 131 1026 l 131 817 l 0 817 l 0 1026 z m 324 817 l 193 817 l 193 1026 l 324 1026 z m 82 865 l 82 976 l 49 976 l 49 865 z m 242 976 l 242 865 l 275 865 l 275 976 z "},"'":{"ha":219,"x_min":0,"x_max":0,"o":"m 131 817 l 0 817 l 0 1026 l 131 1026 z m 82 976 l 49 976 l 49 865 l 82 865 z "},";":{"ha":219,"x_min":0,"x_max":0,"o":"m 131 611 l 0 611 l 0 804 l 131 804 z m 49 756 l 49 660 l 82 660 l 82 756 z m 131 422 l 131 157 l 0 289 l 0 422 z m 82 272 l 82 372 l 49 372 l 49 304 z "},"/":{"ha":579,"x_min":0,"x_max":0,"o":"m 0 3 l 379 1026 l 435 1026 l 51 3 z m 140 3 l 86 3 l 469 1026 l 519 1026 z "},"_":{"ha":646,"x_min":0,"x_max":0,"o":"m 0 0 l 649 0 l 649 -50 l 0 -50 z m 649 -132 l 0 -132 l 0 -82 l 649 -82 z "},"{":{"ha":1157,"x_min":0,"x_max":0,"o":""},"}":{"ha":1157,"x_min":0,"x_max":0,"o":""},"[":{"ha":1157,"x_min":0,"x_max":0,"o":""},"]":{"ha":1157,"x_min":0,"x_max":0,"o":""},"(":{"ha":286,"x_min":0,"x_max":0,"o":"m 179 54 l 181 53 l 154 11 b 121 42 149 15 138 25 b 68 124 104 57 86 85 b 0 511 22 217 0 346 b 67 903 0 675 22 806 b 119 986 85 942 103 969 b 153 1015 136 1001 147 1011 l 179 975 b 157 954 178 974 169 967 b 113 882 143 940 128 917 b 49 511 79 814 49 699 b 113 144 49 324 81 211 b 157 75 128 110 143 88 z m 225 122 l 199 81 l 197 82 b 161 124 186 89 174 103 b 140 163 154 133 147 147 b 82 511 114 219 82 328 b 140 864 82 696 114 804 b 179 929 153 893 167 915 b 197 947 186 936 192 943 l 224 906 b 226 907 224 906 225 906 l 211 890 b 178 828 201 878 190 857 b 131 511 154 768 131 671 b 175 207 131 361 153 265 b 207 144 186 178 197 157 z "},")":{"ha":297,"x_min":0,"x_max":0,"o":"m 47 976 l 49 975 l 71 954 b 117 885 85 942 100 918 b 179 517 149 818 179 704 b 117 146 179 329 149 214 b 71 75 100 111 85 88 l 49 54 l 47 53 l 74 11 b 107 43 79 15 90 26 b 158 125 124 58 140 86 b 226 515 204 221 226 351 b 158 904 226 681 204 811 b 106 986 140 943 122 971 b 72 1015 89 1001 78 1011 z m 29 949 l 1 904 b 19 883 3 903 10 896 b 51 822 29 871 40 851 b 94 515 74 764 94 667 b 49 199 94 356 71 258 b 15 138 36 169 25 149 b 0 119 6 125 0 119 l 3 122 l 29 81 l 32 82 b 50 100 38 86 43 93 b 89 165 61 113 74 133 b 146 517 115 225 146 332 b 89 867 146 701 115 807 b 50 929 75 896 63 917 b 32 947 43 936 38 943 z "},"—":{"ha":522,"x_min":0,"x_max":0,"o":"m 419 579 l 419 531 l 0 531 l 0 579 z m 0 497 l 419 497 l 419 449 l 0 449 z "},"–":{"ha":522,"x_min":0,"x_max":0,"o":"m 419 579 l 419 531 l 0 531 l 0 579 z m 0 497 l 419 497 l 419 449 l 0 449 z "},"-":{"ha":522,"x_min":0,"x_max":0,"o":"m 419 579 l 419 531 l 0 531 l 0 579 z m 0 497 l 419 497 l 419 449 l 0 449 z "},"“":{"ha":393,"x_min":0,"x_max":0,"o":"m 131 1026 l 131 817 l 0 817 l 0 1026 z m 324 817 l 193 817 l 193 1026 l 324 1026 z m 82 865 l 82 976 l 49 976 l 49 865 z m 242 976 l 242 865 l 275 865 l 275 976 z "},"”":{"ha":393,"x_min":0,"x_max":0,"o":"m 131 1026 l 131 817 l 0 817 l 0 1026 z m 324 817 l 193 817 l 193 1026 l 324 1026 z m 82 865 l 82 976 l 49 976 l 49 865 z m 242 976 l 242 865 l 275 865 l 275 976 z "},"‘":{"ha":219,"x_min":0,"x_max":0,"o":"m 131 817 l 0 817 l 0 1026 l 131 1026 z m 82 976 l 49 976 l 49 865 l 82 865 z "},"’":{"ha":219,"x_min":0,"x_max":0,"o":"m 131 817 l 0 817 l 0 1026 l 131 1026 z m 82 976 l 49 976 l 49 865 l 82 865 z "}," ":{"ha":428,"x_min":0,"x_max":0,"o":""},"\r":{"ha":428,"x_min":0,"x_max":0,"o":""},"$":{"ha":494,"x_min":0,"x_max":0,"o":"m 151 1026 l 200 1026 l 200 908 b 90 846 156 904 117 883 b 49 700 64 808 49 760 b 100 564 49 646 65 601 b 188 506 128 535 161 518 b 208 494 197 501 203 499 b 233 482 215 490 224 486 b 310 433 257 471 286 458 b 351 321 333 408 351 372 b 217 151 351 215 301 151 b 82 326 128 151 82 203 l 82 393 l 131 393 l 131 326 b 156 224 131 278 139 243 b 175 208 160 219 165 214 b 217 200 183 203 197 200 b 289 244 254 200 276 219 b 303 321 300 269 303 299 b 278 396 303 356 293 379 b 213 438 261 413 239 425 b 183 451 200 442 190 447 b 176 457 182 453 179 456 b 165 461 172 458 169 460 l 118 488 b 64 531 100 497 82 513 b 0 700 21 576 0 632 b 50 875 0 771 18 829 b 151 949 75 910 108 933 z m 233 1026 l 283 1026 l 283 950 b 382 886 332 935 361 910 b 435 700 417 840 435 779 l 435 635 l 385 635 l 385 700 b 233 908 385 838 329 903 z m 283 0 l 233 0 l 233 119 b 385 321 324 125 385 203 b 335 456 385 383 363 426 b 247 511 306 483 271 500 b 225 522 238 515 231 518 b 215 528 222 524 219 526 b 203 535 211 529 207 532 b 124 588 179 546 147 563 b 82 700 100 613 82 646 b 217 876 82 806 129 876 b 351 700 307 876 351 821 l 351 635 l 303 635 l 303 700 b 279 804 303 749 294 783 b 217 826 269 814 256 826 b 144 775 178 826 156 803 b 131 700 132 747 131 715 b 157 624 131 665 140 642 b 225 578 174 606 197 590 b 250 564 235 574 243 569 b 267 557 256 563 261 560 b 369 490 290 546 335 526 b 435 321 404 454 435 400 b 283 79 435 182 363 101 z m 200 0 l 151 0 l 151 78 b 53 142 103 90 71 118 b 0 326 18 185 0 247 l 0 393 l 49 393 l 49 326 b 200 119 49 193 107 125 z "},"~":{"ha":1157,"x_min":0,"x_max":0,"o":""},"=":{"ha":1157,"x_min":0,"x_max":0,"o":"m 419 732 l 419 683 l 0 683 l 0 732 z m 0 650 l 419 650 l 419 601 l 0 601 z m 419 426 l 419 378 l 0 378 l 0 426 z m 0 344 l 419 344 l 419 296 l 0 296 z "},">":{"ha":1157,"x_min":0,"x_max":0,"o":""},"<":{"ha":1157,"x_min":0,"x_max":0,"o":""},"%":{"ha":854,"x_min":0,"x_max":0,"o":"m 135 3 l 514 1026 l 569 1026 l 185 3 z m 221 3 l 604 1026 l 654 1026 l 275 3 z m 315 693 b 271 571 315 643 299 601 b 157 522 243 540 203 522 b 0 693 67 522 0 593 l 0 813 b 44 936 0 863 17 906 b 157 983 72 967 113 983 b 315 813 250 983 315 913 z m 265 813 b 239 896 265 844 257 875 b 157 935 218 922 192 935 b 49 813 90 935 49 881 l 49 693 b 76 608 49 660 58 632 b 157 571 97 583 124 571 b 265 693 225 571 265 622 z m 233 693 b 217 633 233 672 228 650 b 157 604 204 617 185 604 b 82 693 101 604 82 650 l 82 813 b 157 901 82 856 101 901 b 217 872 185 901 204 889 b 233 813 228 856 233 833 z m 131 693 b 157 653 131 667 139 653 b 183 693 175 653 183 667 l 183 813 b 157 853 183 839 175 853 b 131 813 139 853 131 839 z m 786 214 b 742 92 786 164 769 122 b 629 43 714 61 674 43 b 471 214 536 43 471 114 l 471 333 b 629 504 471 433 536 504 b 742 457 674 504 714 488 b 786 333 769 426 786 383 z m 738 333 b 629 456 738 401 696 456 b 547 417 594 456 568 443 b 521 333 529 396 521 365 l 521 214 b 547 129 521 182 529 151 b 629 92 568 104 594 92 b 738 214 696 92 738 147 z m 704 214 b 629 125 704 171 685 125 b 571 154 601 125 582 138 b 553 214 558 171 553 193 l 553 333 b 571 393 553 354 558 376 b 629 422 582 410 601 422 b 704 333 685 422 704 376 z m 656 333 b 629 374 656 360 647 374 b 603 333 611 374 603 360 l 603 214 b 629 174 603 188 611 174 b 656 214 647 174 656 188 z "},"+":{"ha":635,"x_min":0,"x_max":0,"o":"m 203 782 l 253 782 l 253 531 l 0 531 l 0 579 l 203 579 z m 538 531 l 285 531 l 285 782 l 335 782 l 335 579 l 538 579 z m 0 497 l 253 497 l 253 244 l 203 244 l 203 449 l 0 449 z m 335 244 l 285 244 l 285 497 l 538 497 l 538 449 l 335 449 z "},"&":{"ha":703,"x_min":0,"x_max":0,"o":"m 522 60 l 557 3 l 503 3 l 458 72 b 254 3 404 26 336 3 b 65 86 178 3 111 32 b 0 276 22 138 0 201 b 49 444 0 349 19 403 b 149 546 76 486 114 517 b 168 563 156 551 163 557 b 118 667 151 590 133 626 b 92 792 103 707 92 749 b 254 1026 92 929 133 1026 b 393 936 319 1026 367 996 b 415 792 414 892 415 836 b 358 578 415 714 396 639 b 335 543 349 563 342 553 l 444 357 b 447 404 446 372 447 389 l 447 446 l 447 513 l 497 513 l 497 446 b 464 224 497 385 493 297 l 275 549 b 331 629 288 561 311 589 b 367 792 350 668 367 724 b 347 917 367 831 364 879 b 254 976 331 957 300 976 b 164 926 214 976 183 960 b 142 792 149 897 142 851 b 179 651 142 746 160 694 b 232 554 199 608 221 572 b 207 531 224 546 215 538 b 181 508 197 524 189 515 b 89 417 147 481 113 453 b 49 276 65 381 49 338 b 103 118 49 215 68 158 b 254 51 142 74 192 51 b 467 156 349 51 419 86 z m 254 944 b 333 792 311 944 333 903 b 304 651 333 732 321 686 b 256 578 288 617 268 590 b 207 669 244 596 224 631 b 174 792 189 708 174 753 b 199 919 174 858 183 897 b 254 944 214 940 233 944 z m 260 671 b 283 792 272 703 283 742 l 283 810 b 279 861 283 825 282 843 b 272 883 278 869 275 876 b 254 894 268 893 267 894 b 238 888 242 894 242 893 b 228 857 233 881 231 871 b 224 792 225 843 224 821 b 260 671 224 754 239 710 z m 447 188 b 254 85 410 119 344 85 b 124 146 194 85 151 110 b 82 276 96 182 82 228 b 117 399 82 328 94 367 b 201 483 139 431 168 456 l 226 506 b 250 526 233 513 242 519 z m 529 513 l 579 513 l 579 446 b 540 192 579 378 575 279 l 658 3 l 596 3 l 550 76 l 485 189 b 488 194 485 189 486 190 b 529 446 525 278 529 378 z m 238 450 l 233 446 b 158 372 201 418 175 397 b 131 276 140 347 131 317 b 160 181 131 243 140 207 b 254 133 179 153 210 133 b 389 189 314 133 358 151 z "},"^":{"ha":1157,"x_min":0,"x_max":0,"o":""},"@":{"ha":961,"x_min":0,"x_max":0,"o":"m 836 192 l 865 150 l 813 113 b 463 3 713 40 589 3 b 171 81 357 3 256 29 b -19 540 22 169 -53 329 b 121 828 -1 656 46 751 b 368 963 188 899 274 942 b 624 946 457 981 546 975 b 814 793 701 917 768 864 b 872 601 846 743 867 674 b 843 403 876 531 867 460 b 706 261 821 346 771 296 b 528 233 643 229 578 218 b 449 299 490 243 464 265 b 378 293 422 293 399 293 b 199 514 250 293 181 368 b 413 728 215 647 285 728 b 499 717 439 728 467 726 l 500 732 l 549 724 b 543 686 547 713 544 700 b 535 639 540 671 538 656 l 526 647 b 517 654 524 650 521 653 b 413 678 485 675 439 678 b 247 507 317 678 261 621 b 378 342 231 392 278 342 b 492 372 426 342 463 344 b 490 361 490 369 490 365 b 542 281 483 318 503 290 b 683 306 579 271 632 279 b 797 421 738 333 779 375 b 822 597 818 472 826 535 b 700 847 813 731 757 801 b 496 924 643 892 574 918 b 378 915 457 926 418 924 b 156 794 292 897 218 857 b 29 533 89 726 46 638 b 197 122 0 351 58 207 b 463 53 271 76 363 53 l 478 53 b 493 54 482 53 488 53 b 783 151 603 60 704 94 b 801 165 785 153 790 157 z m 582 718 l 631 710 l 619 646 b 614 608 619 644 618 632 b 600 525 610 585 604 557 b 572 358 589 461 578 388 b 631 372 585 358 604 361 b 721 451 674 390 710 419 b 740 593 738 492 744 543 b 703 722 736 642 725 689 b 574 825 671 768 628 806 b 394 835 519 844 457 847 b 110 519 243 803 136 686 b 240 192 86 371 129 258 b 489 136 311 149 400 131 b 735 218 578 140 667 168 l 788 257 l 817 218 b 781 190 801 206 789 197 l 764 178 b 492 86 688 122 590 92 b 214 150 392 81 292 101 b 61 528 88 228 35 360 b 186 778 78 638 126 719 b 385 883 246 836 318 868 b 593 869 457 899 531 893 b 744 749 654 846 707 804 b 790 599 771 710 785 654 b 767 433 794 542 785 482 b 683 343 751 394 719 364 b 574 310 647 321 606 310 b 550 313 563 310 554 311 b 528 389 506 324 522 357 l 538 446 b 561 592 543 489 553 542 z m 499 628 b 518 603 506 622 513 614 b 519 544 524 590 524 571 b 497 447 513 501 504 469 b 431 378 481 401 458 382 b 378 375 415 376 399 375 b 279 503 299 375 268 407 b 413 646 292 603 333 646 b 499 628 451 646 481 640 z m 471 553 b 474 576 472 564 474 572 b 471 586 472 581 472 585 b 453 593 468 588 463 590 b 413 596 443 594 429 596 b 360 581 392 596 375 593 b 328 497 344 568 333 543 b 328 454 326 479 326 464 b 333 433 329 444 331 438 b 378 425 339 428 354 425 b 415 426 393 425 406 425 b 435 432 425 426 431 428 b 451 465 439 436 444 447 b 471 553 457 482 464 511 z "},"|":{"ha":281,"x_min":0,"x_max":0,"o":"m 42 1 l 42 1025 l 90 1025 l 90 1 z m 172 1 l 124 1 l 124 1025 l 172 1025 z "},"©":{"ha":1157,"x_min":0,"x_max":0,"o":""},"®":{"ha":1157,"x_min":0,"x_max":0,"o":""},"™":{"ha":1388,"x_min":0,"x_max":0,"o":""},"˘":{"ha":1157,"x_min":0,"x_max":0,"o":""},"ˇ":{"ha":1157,"x_min":0,"x_max":0,"o":""},"ˆ":{"ha":1157,"x_min":0,"x_max":0,"o":""},"˙":{"ha":1157,"x_min":0,"x_max":0,"o":""},"`":{"ha":219,"x_min":0,"x_max":0,"o":"m 131 817 l 0 817 l 0 1026 l 131 1026 z m 82 976 l 49 976 l 49 865 l 82 865 z "},"˝":{"ha":1157,"x_min":0,"x_max":0,"o":""},"˛":{"ha":1157,"x_min":0,"x_max":0,"o":""},"˚":{"ha":1157,"x_min":0,"x_max":0,"o":""},"˜":{"ha":1157,"x_min":0,"x_max":0,"o":""}}}
